<svg width="40" height="40" viewBox="0 0 40 40" fill="none" xmlns="http://www.w3.org/2000/svg">
<circle cx="20" cy="20" r="20" fill="white"/>
<path d="M19.9992 10.2856C19.3219 10.2856 18.7747 10.8283 18.7747 11.4999V12.2285C15.9814 12.7901 13.8768 15.2414 13.8768 18.1785V18.8919C13.8768 20.6754 13.2148 22.3981 12.021 23.7339L11.7378 24.0488C11.4164 24.4055 11.3398 24.9178 11.535 25.3542C11.7301 25.7906 12.1702 26.0714 12.6523 26.0714H27.346C27.8282 26.0714 28.2644 25.7906 28.4633 25.3542C28.6623 24.9178 28.582 24.4055 28.2605 24.0488L27.9774 23.7339C26.7835 22.3981 26.1215 20.6792 26.1215 18.8919V18.1785C26.1215 15.2414 24.017 12.7901 21.2236 12.2285V11.4999C21.2236 10.8283 20.6765 10.2856 19.9992 10.2856ZM21.7326 29.0046C22.1917 28.5493 22.4481 27.9307 22.4481 27.2856H19.9992H17.5502C17.5502 27.9307 17.8066 28.5493 18.2658 29.0046C18.725 29.46 19.3487 29.7142 19.9992 29.7142C20.6497 29.7142 21.2734 29.46 21.7326 29.0046Z" fill="black"/>
</svg>
